<?xml version="1.0" standalone="no"?>
<!DOCTYPE svg PUBLIC "-//W3C//DTD SVG 20010904//EN"
 "http://www.w3.org/TR/2001/REC-SVG-20010904/DTD/svg10.dtd">
<svg version="1.0" xmlns="http://www.w3.org/2000/svg"
 width="400.000000pt" height="400.000000pt" viewBox="0 0 400.000000 400.000000"
 preserveAspectRatio="xMidYMid meet">
<metadata>
Created by potrace 1.11, written by Peter Selinger 2001-2013
</metadata>
<g transform="translate(0.000000,400.000000) scale(0.100000,-0.100000)"
fill="#000000" stroke="none">
<path d="M1808 3935 c18 -33 61 -81 62 -69 0 6 -17 29 -37 50 -20 21 -31 30
-25 19z"/>
<path d="M1786 3898 l6 -48 -53 0 c-60 0 -161 -39 -124 -48 33 -7 38 -19 12
-26 -16 -4 -26 -15 -30 -33 -4 -20 -27 -44 -76 -81 -39 -30 -69 -58 -68 -64 1
-6 -12 -15 -30 -22 -53 -19 -51 -29 5 -23 28 3 52 4 52 1 0 -2 -6 -20 -14 -38
-7 -18 -17 -51 -21 -74 -3 -22 -12 -46 -20 -52 -11 -9 -28 -76 -30 -120 0 -8
-6 -25 -13 -37 -16 -28 -8 -29 25 -3 15 11 28 18 30 16 2 -2 0 -37 -6 -77 -11
-78 -7 -100 14 -73 8 11 19 15 30 10 16 -6 17 -15 11 -82 -7 -74 -7 -75 14
-64 18 9 20 8 20 -15 0 -22 3 -25 24 -19 30 7 39 -7 26 -42 -14 -36 -6 -41 37
-20 38 18 53 11 53 -26 0 -25 16 -31 34 -13 13 14 22 14 68 3 46 -11 53 -17
59 -43 3 -16 8 -37 10 -45 3 -12 -8 -15 -56 -16 -67 -1 -139 -25 -173 -57 -24
-22 -99 -136 -146 -221 -15 -27 -44 -74 -65 -105 -20 -31 -54 -90 -75 -131
-22 -41 -51 -93 -67 -115 -43 -62 -92 -146 -87 -150 2 -3 20 11 39 30 19 19
39 35 46 35 12 0 34 33 32 47 -3 21 2 34 12 28 5 -4 19 3 30 16 10 12 19 19
19 15 0 -15 -65 -116 -75 -116 -14 -1 -55 -36 -55 -48 0 -21 -42 -63 -59 -57
-23 7 -40 -13 -86 -100 -20 -38 -42 -75 -47 -82 -5 -7 -11 -26 -12 -42 -1 -16
-13 -45 -26 -65 -21 -29 -26 -32 -31 -18 -5 14 -10 10 -28 -18 -11 -19 -21
-40 -21 -45 0 -6 -7 -21 -16 -34 -9 -13 -18 -40 -19 -60 -1 -20 -7 -53 -13
-74 -8 -31 -7 -39 7 -47 9 -5 11 -10 4 -10 -8 0 -13 -14 -13 -34 0 -39 3 -40
145 -52 44 -3 92 -13 107 -20 37 -19 100 -18 136 3 29 16 33 16 89 -1 74 -24
188 -24 268 -1 66 19 80 20 144 9 62 -10 36 -19 -114 -39 -71 -9 -173 -23
-225 -31 -52 -8 -138 -21 -190 -29 -52 -7 -118 -19 -145 -26 -69 -16 -105 -18
-105 -5 0 7 -3 7 -8 -1 -4 -6 -50 -18 -102 -27 -52 -9 -110 -21 -129 -27 -18
-6 -62 -11 -97 -11 l-63 0 -3 -30 c-4 -43 -30 -58 -58 -33 -11 10 -18 25 -16
32 6 15 -31 12 -104 -9 -19 -5 -48 -11 -65 -14 -65 -10 -242 -46 -277 -56
l-38 -11 0 -153 0 -152 27 13 c36 17 181 50 188 43 4 -3 15 -93 26 -199 17
-175 27 -237 61 -391 l10 -48 105 0 104 0 -6 42 c-3 24 -1 68 4 98 7 43 7 57
-4 66 -8 6 -15 34 -16 70 -2 32 -6 64 -10 69 -12 19 -32 147 -33 221 -1 51 -5
74 -13 74 -7 0 -10 6 -7 13 5 14 19 17 66 17 15 0 29 4 33 10 10 17 25 11 18
-7 -4 -10 10 -2 30 18 31 31 47 38 109 48 40 7 91 11 113 9 l40 -3 8 -75 c12
-104 64 -467 82 -570 8 -47 15 -88 15 -92 0 -5 53 -8 118 -8 l118 0 -4 40 c-3
34 -1 40 14 40 18 1 18 1 2 14 -13 9 -18 27 -18 59 0 25 -4 47 -9 49 -5 1 -16
37 -25 78 -9 41 -22 107 -31 145 -8 39 -15 99 -15 135 0 59 -16 129 -33 146
-4 4 -7 24 -7 44 0 37 1 38 53 49 28 7 61 14 72 15 11 2 27 6 35 9 23 9 130
27 162 27 25 0 27 -2 19 -19 -6 -10 -7 -21 -4 -25 3 -3 1 -6 -5 -6 -7 0 -12
-4 -12 -10 0 -5 7 -10 16 -10 13 0 16 -10 13 -57 -3 -76 -1 -95 10 -89 5 3 11
-3 14 -15 3 -12 0 -22 -9 -26 -20 -7 -18 -23 4 -23 13 0 14 -2 3 -9 -8 -5 -9
-10 -3 -12 6 -2 12 -21 14 -42 1 -21 6 -41 11 -44 4 -2 3 -11 -4 -19 -8 -10
-9 -18 0 -27 6 -8 8 -17 5 -20 -3 -3 -3 -30 2 -59 6 -43 9 -48 14 -28 l6 25
14 -25 c9 -17 10 -25 1 -28 -17 -6 -13 -32 4 -32 13 0 14 -4 4 -22 -12 -22
-12 -22 -21 -3 -6 14 -7 12 -2 -10 3 -16 7 -32 9 -33 9 -9 25 11 26 31 0 21 1
21 12 -3 6 -14 18 -29 25 -33 21 -14 52 -95 52 -138 l0 -39 65 0 c63 0 65 1
60 23 -2 12 -14 80 -25 152 -12 72 -30 170 -41 220 -10 49 -19 114 -19 145 l0
55 -17 -34 c-9 -19 -19 -28 -21 -21 -3 7 1 16 8 20 9 6 10 9 0 15 -21 13 -31
-18 -26 -78 5 -52 4 -57 -14 -57 -17 0 -19 7 -18 52 0 29 -4 73 -10 98 -16 73
-24 278 -12 316 11 31 40 52 58 40 10 -6 92 13 107 25 13 9 154 49 175 49 15
0 16 -27 13 -250 l-3 -249 -55 -113 c-40 -84 -58 -135 -70 -202 -20 -115 -20
-167 -1 -160 10 4 16 -2 18 -18 2 -18 10 -24 36 -26 27 -3 39 4 81 47 53 55
61 59 61 36 0 -8 14 -30 31 -50 l31 -35 976 0 975 0 -6 93 c-4 50 -10 122 -13
159 l-7 68 32 6 31 7 0 376 0 376 -63 39 c-74 48 -137 95 -137 104 0 4 45 5
100 4 l100 -4 0 113 c0 108 -1 111 -18 96 -22 -20 -93 -24 -74 -5 20 20 13 28
-13 16 -21 -9 -28 -8 -38 5 -13 18 -57 13 -57 -6 0 -6 -3 -7 -7 -4 -3 4 -13
-3 -22 -16 -16 -22 -16 -22 -21 13 l-5 35 -20 -22 c-22 -26 -75 -32 -75 -9 0
8 4 17 9 20 5 3 21 32 36 63 26 54 28 56 36 34 5 -13 12 -21 15 -18 3 3 -3 32
-14 65 -12 32 -24 82 -28 110 -3 29 -10 52 -14 52 -14 0 -31 57 -25 82 5 20
-1 36 -27 70 -19 24 -40 60 -48 79 -14 35 -59 99 -110 158 -17 19 -30 39 -30
45 0 6 -12 34 -27 61 -14 28 -39 85 -55 129 -30 81 -66 152 -100 196 -94 120
-157 212 -163 238 -8 40 -64 89 -111 98 -23 4 -62 0 -104 -10 -82 -19 -99 -20
-124 -1 -25 19 -55 19 -75 1 -9 -8 -48 -16 -94 -18 -65 -4 -82 -2 -101 13 -33
26 -40 12 -8 -17 l27 -23 -32 -1 c-21 0 -33 -5 -33 -14 0 -18 -42 -29 -52 -13
-5 7 -11 23 -14 37 -10 46 -46 113 -54 100 -4 -7 -10 1 -14 21 -9 44 14 70 45
51 28 -18 30 -13 18 32 -11 39 -3 136 11 136 4 0 10 24 13 54 9 90 -22 183
-52 153 -15 -15 -14 -5 4 29 12 23 15 25 15 10 0 -14 3 -17 11 -9 14 14 -32
118 -60 133 -24 13 -24 14 -21 -70 2 -58 0 -63 -14 -51 -9 7 -16 22 -16 32 0
30 -18 31 -22 2 l-4 -28 -7 30 c-4 17 -12 53 -18 80 -23 110 -65 190 -110 207
-17 6 -17 4 -3 -34 8 -22 14 -55 13 -72 l-1 -31 -11 35 c-6 19 -14 37 -18 40
-4 3 -8 14 -10 25 -2 11 -19 28 -37 37 -32 16 -33 17 -10 21 16 3 12 5 -13 6
-38 1 -56 16 -82 66 -12 22 -16 25 -17 11 0 -10 13 -38 30 -62 20 -30 25 -44
15 -44 -7 0 -15 -3 -17 -7 -1 -5 -19 -20 -38 -35 -19 -15 -50 -39 -67 -53 -47
-38 -41 -17 12 38 50 53 52 57 30 57 -8 0 -15 3 -15 6 0 3 7 12 15 20 8 9 15
20 15 26 0 6 -3 9 -6 5 -14 -14 -66 18 -89 56 l-26 42 7 -47z m34 -109 c-74
-34 -92 -40 -84 -28 13 21 69 49 99 49 29 0 28 -1 -15 -21z m181 -58 c6 10 9
2 9 -23 0 -36 -20 -64 -28 -39 -3 8 -8 6 -18 -6 -12 -17 -13 -16 -14 10 0 15
8 40 17 54 16 23 18 25 21 9 3 -15 6 -16 13 -5z m335 -871 c13 0 24 -4 24 -9
0 -5 3 -16 6 -25 4 -11 -13 -24 -64 -50 -67 -34 -70 -34 -75 -15 -3 11 -11 19
-19 18 -22 -5 -58 20 -58 40 0 10 7 25 16 32 15 12 19 11 32 -9 8 -12 22 -22
32 -22 26 0 70 43 71 70 2 24 2 23 6 -2 3 -22 10 -28 29 -28z m97 -47 c-7 -2
-19 -2 -25 0 -7 3 -2 5 12 5 14 0 19 -2 13 -5z m-517 -39 c-4 -9 -9 -15 -11
-12 -3 3 -3 13 1 22 4 9 9 15 11 12 3 -3 3 -13 -1 -22z m-296 -161 c0 -3 -7
-15 -17 -25 -10 -12 -12 -18 -4 -18 13 0 -16 -46 -52 -85 -10 -11 -32 -46 -49
-79 -16 -32 -32 -56 -34 -53 -3 3 -1 14 5 25 6 11 8 22 4 25 -6 7 80 150 109
181 10 11 18 23 18 28 0 4 5 8 10 8 6 0 10 -3 10 -7z m-170 -243 c0 -5 -5 -10
-11 -10 -5 0 -7 5 -4 10 3 6 8 10 11 10 2 0 4 -4 4 -10z m56 -51 c3 -6 1 -16
-5 -22 -8 -8 -17 -5 -33 11 l-22 22 26 0 c15 0 30 -5 34 -11z m1044 -50 c0
-24 -23 -21 -28 4 -2 10 3 17 12 17 10 0 16 -9 16 -21z m-1229 -112 c-10 -9
-11 -8 -5 6 3 10 9 15 12 12 3 -3 0 -11 -7 -18z m489 -384 c12 -32 28 -80 35
-108 7 -27 20 -68 28 -90 8 -22 17 -58 21 -80 4 -22 16 -64 27 -94 23 -63 19
-79 -7 -26 -10 21 -28 48 -41 61 -24 24 -31 54 -12 54 6 0 9 14 7 32 -3 30 -6
32 -43 36 -22 2 -53 12 -70 23 -88 56 -135 56 -156 2 -10 -27 -11 -27 -25 -9
-12 17 -14 18 -14 3 0 -9 -7 -17 -15 -17 -24 0 -18 22 18 62 17 20 43 52 57
72 14 19 37 40 53 47 15 6 41 29 58 50 17 22 37 39 44 39 8 0 23 -26 35 -57z
m1078 -285 l-3 -22 -16 24 c-9 14 -19 35 -23 48 l-7 22 26 -24 c17 -16 25 -33
23 -48z m-1038 20 c0 -7 -5 -20 -10 -28 -8 -12 -10 -9 -10 13 0 15 5 27 10 27
6 0 10 -6 10 -12z m57 -164 c-3 -3 -12 -4 -19 -1 -8 3 -5 6 6 6 11 1 17 -2 13
-5z m-14 -171 c-7 -2 -19 -2 -25 0 -7 3 -2 5 12 5 14 0 19 -2 13 -5z m1279
-50 c24 -23 32 -25 47 -16 15 10 20 9 25 -2 3 -8 1 -17 -4 -20 -19 -12 -7 -92
22 -148 12 -24 9 -26 -22 -20 -18 3 -41 27 -77 82 -63 94 -69 107 -49 114 9 4
16 13 16 22 0 22 10 19 42 -12z m-1279 -10 c-7 -2 -21 -2 -30 0 -10 3 -4 5 12
5 17 0 24 -2 18 -5z m-23 -63 c-14 -4 -34 -8 -45 -8 l-20 -1 20 9 c11 5 31 8
45 8 l25 0 -25 -8z m1477 -131 c-7 -11 -16 -19 -21 -19 -4 0 -3 6 3 14 9 10 8
15 -4 20 -8 3 -15 15 -15 27 l0 22 24 -22 c21 -20 23 -26 13 -42z m-2899 -53
c4 -21 -14 -37 -35 -29 -14 5 -18 35 -6 47 12 12 38 1 41 -18z m2507 -103 c45
-37 42 -51 -6 -30 -42 18 -89 70 -89 98 0 21 2 20 28 -7 15 -16 45 -44 67 -61z
m225 -105 c-25 -9 -36 -5 -26 10 3 6 16 8 28 4 l22 -5 -24 -9z m-1550 -163 c0
-8 -4 -15 -10 -15 -5 0 -10 7 -10 15 0 8 5 15 10 15 6 0 10 -7 10 -15z m433
-190 c21 -20 10 -54 -19 -61 -42 -11 -72 34 -42 64 16 16 43 15 61 -3z m1816
-89 c9 -10 8 -16 -4 -26 -19 -16 -41 1 -32 24 8 20 21 20 36 2z"/>
<path d="M1870 1464 c0 -8 5 -12 10 -9 6 4 8 11 5 16 -9 14 -15 11 -15 -7z"/>
<path d="M3810 1630 c0 -5 5 -10 10 -10 6 0 10 5 10 10 0 6 -4 10 -10 10 -5 0
-10 -4 -10 -10z"/>
<path d="M3805 1571 c-3 -17 -11 -33 -16 -36 -5 -4 -9 -14 -9 -25 0 -16 7 -18
78 -14 65 4 80 8 94 27 27 34 22 43 -34 55 -29 6 -65 14 -79 17 -24 6 -28 4
-34 -24z"/>
<path d="M618 1283 c7 -3 16 -2 19 1 4 3 -2 6 -13 5 -11 0 -14 -3 -6 -6z"/>
<path d="M370 1230 c-8 -5 -10 -10 -5 -10 6 0 17 5 25 10 8 5 11 10 5 10 -5 0
-17 -5 -25 -10z"/>
<path d="M300 1210 c-24 -8 -24 -8 7 -9 17 -1 35 4 38 9 7 11 -9 11 -45 0z"/>
<path d="M498 1183 c7 -3 16 -2 19 1 4 3 -2 6 -13 5 -11 0 -14 -3 -6 -6z"/>
<path d="M1111 724 c0 -11 3 -14 6 -6 3 7 2 16 -1 19 -3 4 -6 -2 -5 -13z"/>
<path d="M1550 698 c0 -24 5 -50 10 -58 7 -11 10 2 10 43 0 31 -4 57 -10 57
-5 0 -10 -19 -10 -42z"/>
<path d="M1613 675 c0 -22 2 -30 4 -17 2 12 2 30 0 40 -3 9 -5 -1 -4 -23z"/>
<path d="M1110 670 c0 -19 3 -21 12 -12 9 9 9 15 0 24 -9 9 -12 7 -12 -12z"/>
<path d="M568 605 c2 -25 8 -45 12 -45 9 0 1 70 -9 82 -3 4 -4 -13 -3 -37z"/>
<path d="M551 598 c0 -15 -5 -30 -11 -33 -11 -7 -14 -74 -4 -99 3 -9 12 -16
20 -16 9 0 14 -12 14 -35 0 -19 4 -35 9 -35 13 0 17 19 17 75 -1 42 -4 50 -20
48 -14 -1 -17 4 -13 22 2 13 1 41 -3 62 -6 30 -8 32 -9 11z"/>
<path d="M500 570 c0 -5 5 -10 11 -10 5 0 7 5 4 10 -3 6 -8 10 -11 10 -2 0 -4
-4 -4 -10z"/>
<path d="M480 527 c4 -41 5 -41 8 -8 2 18 0 37 -5 42 -5 5 -6 -11 -3 -34z"/>
<path d="M600 309 c0 -5 5 -7 10 -4 6 3 10 8 10 11 0 2 -4 4 -10 4 -5 0 -10
-5 -10 -11z"/>
<path d="M601 194 c0 -11 3 -14 6 -6 3 7 2 16 -1 19 -3 4 -6 -2 -5 -13z"/>
<path d="M1515 160 c-4 -7 -2 -15 4 -19 9 -6 8 -15 -4 -37 -17 -33 -20 -104
-5 -104 6 0 10 17 10 39 0 22 6 44 15 51 10 8 13 21 9 39 -8 34 -20 46 -29 31z"/>
<path d="M577 87 c-8 -72 -5 -99 8 -85 3 3 5 41 3 84 l-3 79 -8 -78z"/>
<path d="M552 123 c-1 -17 -5 -40 -8 -50 -5 -17 -5 -17 6 0 6 9 9 32 7 50 l-4
32 -1 -32z"/>
<path d="M1491 114 c0 -11 3 -14 6 -6 3 7 2 16 -1 19 -3 4 -6 -2 -5 -13z"/>
<path d="M1536 44 c-10 -27 -7 -44 9 -44 10 0 15 10 15 30 0 32 -14 40 -24 14z"/>
</g>
</svg>
